<svg width="42" height="47" viewBox="0 0 42 47" fill="#377CF4" xmlns="http://www.w3.org/2000/svg">
<path d="M34.2875 36.8523C34.3123 36.9094 34.2663 36.963 34.2041 36.9631C30.5982 36.97 26.9916 36.9765 23.3138 36.9468C23.2477 36.9463 23.162 36.9023 23.1056 36.8678V36.8678C23.0445 36.8305 23.0039 36.8102 22.9559 36.7571C20.5804 34.1237 18.1861 31.5053 15.8377 28.8504C14.2823 27.0921 12.5741 25.409 11.3151 23.4692C5.97022 15.2343 10.3058 4.04756 19.9517 0.898761C29.6188 -2.25698 39.6474 3.18716 41.6854 12.6972C43.3576 20.4997 38.1982 28.5358 30.1257 30.7017V30.7017C29.6029 30.842 29.4112 31.4839 29.7744 31.8852C30.2261 32.3844 30.6686 32.8729 31.114 33.359C32.1525 34.4922 33.1963 35.6212 34.2691 36.8215C34.2753 36.8284 34.2838 36.8439 34.2875 36.8523V36.8523ZM22.0004 8.80172C17.1371 11.2483 15.9769 16.7858 19.5059 20.7079C21.8061 23.2644 25.7323 24.0284 28.9656 22.5487C32.1936 21.0715 34.0664 17.5763 33.3826 14.3049C32.3425 9.32892 26.9858 6.69977 22.0004 8.80172Z" fill="#008CDB"/>
<path d="M3.26485e-06 10.7546C1.2667e-06 8.65252 4.91427e-07 6.57526 1.90642e-07 4.5C-1.29546e-07 2.29086 1.79086 0.5 4 0.5C4.23714 0.5 4.47426 0.5 4.71141 0.5C6.92055 0.5 8.71142 2.29087 8.71142 4.50001C8.71142 15.6315 8.71142 26.7558 8.71142 37.9428C8.71142 38.434 9.10966 38.8323 9.60092 38.8323V38.8323C18.3255 38.8323 27.0501 38.8361 35.7746 38.8225C36.2695 38.8218 36.5947 38.9501 36.9232 39.309C37.2022 39.6137 37.4816 39.9181 37.7615 40.2224C40.126 42.793 38.3191 46.9482 34.8263 46.9482C24.55 46.9482 14.2987 46.9482 4.00003 46.9482C1.79089 46.9482 5.4434e-06 45.1573 5.43724e-06 42.9482C5.40742e-06 32.2462 5.16742e-06 21.5268 3.26485e-06 10.7546Z" fill="#008CDB"/>
</svg>
