<svg width="155" height="47" viewBox="0 0 155 47" fill="none" xmlns="http://www.w3.org/2000/svg">
<path d="M62.9666 38.36H67.4466V41H59.5466V26.96H62.9666V38.36ZM68.3979 35.4C68.3979 34.2533 68.6112 33.2467 69.0379 32.38C69.4779 31.5133 70.0712 30.8467 70.8179 30.38C71.5646 29.9133 72.3979 29.68 73.3179 29.68C74.1046 29.68 74.7912 29.84 75.3779 30.16C75.9779 30.48 76.4379 30.9 76.7579 31.42V29.84H80.1779V41H76.7579V39.42C76.4246 39.94 75.9579 40.36 75.3579 40.68C74.7712 41 74.0846 41.16 73.2979 41.16C72.3912 41.16 71.5646 40.9267 70.8179 40.46C70.0712 39.98 69.4779 39.3067 69.0379 38.44C68.6112 37.56 68.3979 36.5467 68.3979 35.4ZM76.7579 35.42C76.7579 34.5667 76.5179 33.8933 76.0379 33.4C75.5712 32.9067 74.9979 32.66 74.3179 32.66C73.6379 32.66 73.0579 32.9067 72.5779 33.4C72.1112 33.88 71.8779 34.5467 71.8779 35.4C71.8779 36.2533 72.1112 36.9333 72.5779 37.44C73.0579 37.9333 73.6379 38.18 74.3179 38.18C74.9979 38.18 75.5712 37.9333 76.0379 37.44C76.5179 36.9467 76.7579 36.2733 76.7579 35.42ZM86.0721 31.42C86.4054 30.9 86.8654 30.48 87.4521 30.16C88.0388 29.84 88.7254 29.68 89.5121 29.68C90.4321 29.68 91.2654 29.9133 92.0121 30.38C92.7588 30.8467 93.3454 31.5133 93.7721 32.38C94.2121 33.2467 94.4321 34.2533 94.4321 35.4C94.4321 36.5467 94.2121 37.56 93.7721 38.44C93.3454 39.3067 92.7588 39.98 92.0121 40.46C91.2654 40.9267 90.4321 41.16 89.5121 41.16C88.7388 41.16 88.0521 41 87.4521 40.68C86.8654 40.36 86.4054 39.9467 86.0721 39.44V46.32H82.6521V29.84H86.0721V31.42ZM90.9521 35.4C90.9521 34.5467 90.7121 33.88 90.2321 33.4C89.7654 32.9067 89.1854 32.66 88.4921 32.66C87.8121 32.66 87.2321 32.9067 86.7521 33.4C86.2854 33.8933 86.0521 34.5667 86.0521 35.42C86.0521 36.2733 86.2854 36.9467 86.7521 37.44C87.2321 37.9333 87.8121 38.18 88.4921 38.18C89.1721 38.18 89.7521 37.9333 90.2321 37.44C90.7121 36.9333 90.9521 36.2533 90.9521 35.4ZM101.306 41.16C100.213 41.16 99.2263 40.9267 98.3463 40.46C97.4797 39.9933 96.793 39.3267 96.2863 38.46C95.793 37.5933 95.5463 36.58 95.5463 35.42C95.5463 34.2733 95.7997 33.2667 96.3063 32.4C96.813 31.52 97.5063 30.8467 98.3863 30.38C99.2663 29.9133 100.253 29.68 101.346 29.68C102.44 29.68 103.426 29.9133 104.306 30.38C105.186 30.8467 105.88 31.52 106.386 32.4C106.893 33.2667 107.146 34.2733 107.146 35.42C107.146 36.5667 106.886 37.58 106.366 38.46C105.86 39.3267 105.16 39.9933 104.266 40.46C103.386 40.9267 102.4 41.16 101.306 41.16ZM101.306 38.2C101.96 38.2 102.513 37.96 102.966 37.48C103.433 37 103.666 36.3133 103.666 35.42C103.666 34.5267 103.44 33.84 102.986 33.36C102.546 32.88 102 32.64 101.346 32.64C100.68 32.64 100.126 32.88 99.6863 33.36C99.2463 33.8267 99.0263 34.5133 99.0263 35.42C99.0263 36.3133 99.2397 37 99.6663 37.48C100.106 37.96 100.653 38.2 101.306 38.2ZM112.381 31.7C112.781 31.0867 113.281 30.6067 113.881 30.26C114.481 29.9 115.147 29.72 115.881 29.72V33.34H114.941C114.087 33.34 113.447 33.5267 113.021 33.9C112.594 34.26 112.381 34.9 112.381 35.82V41H108.961V29.84H112.381V31.7ZM128.215 31.48C128.215 32.2933 128.029 33.04 127.655 33.72C127.282 34.3867 126.709 34.9267 125.935 35.34C125.162 35.7533 124.202 35.96 123.055 35.96H120.935V41H117.515V26.96H123.055C124.175 26.96 125.122 27.1533 125.895 27.54C126.669 27.9267 127.249 28.46 127.635 29.14C128.022 29.82 128.215 30.6 128.215 31.48ZM122.795 33.24C123.449 33.24 123.935 33.0867 124.255 32.78C124.575 32.4733 124.735 32.04 124.735 31.48C124.735 30.92 124.575 30.4867 124.255 30.18C123.935 29.8733 123.449 29.72 122.795 29.72H120.935V33.24H122.795ZM129.316 35.4C129.316 34.2533 129.529 33.2467 129.956 32.38C130.396 31.5133 130.989 30.8467 131.736 30.38C132.483 29.9133 133.316 29.68 134.236 29.68C135.023 29.68 135.709 29.84 136.296 30.16C136.896 30.48 137.356 30.9 137.676 31.42V29.84H141.096V41H137.676V39.42C137.343 39.94 136.876 40.36 136.276 40.68C135.689 41 135.003 41.16 134.216 41.16C133.309 41.16 132.483 40.9267 131.736 40.46C130.989 39.98 130.396 39.3067 129.956 38.44C129.529 37.56 129.316 36.5467 129.316 35.4ZM137.676 35.42C137.676 34.5667 137.436 33.8933 136.956 33.4C136.489 32.9067 135.916 32.66 135.236 32.66C134.556 32.66 133.976 32.9067 133.496 33.4C133.029 33.88 132.796 34.5467 132.796 35.4C132.796 36.2533 133.029 36.9333 133.496 37.44C133.976 37.9333 134.556 38.18 135.236 38.18C135.916 38.18 136.489 37.9333 136.956 37.44C137.436 36.9467 137.676 36.2733 137.676 35.42ZM150.39 41L146.99 36.32V41H143.57V26.2H146.99V34.38L150.37 29.84H154.59L149.95 35.44L154.63 41H150.39Z" fill="#3D8AD5"/>
<path d="M35.2875 36.8523C35.3123 36.9094 35.2663 36.963 35.2041 36.9631C31.5982 36.97 27.9916 36.9765 24.3138 36.9468C24.2477 36.9463 24.162 36.9023 24.1056 36.8678C24.0445 36.8305 24.0039 36.8102 23.9559 36.757C21.5804 34.1237 19.1861 31.5053 16.8377 28.8504C15.2823 27.0921 13.5741 25.409 12.3151 23.4692C6.97022 15.2343 11.3058 4.04756 20.9517 0.898761C30.6188 -2.25698 40.6474 3.18716 42.6854 12.6972C44.3576 20.4997 39.1982 28.5358 31.1257 30.7017C30.6029 30.842 30.4112 31.4839 30.7744 31.8852C31.2261 32.3844 31.6686 32.8729 32.114 33.359C33.1525 34.4922 34.1963 35.6212 35.2691 36.8215C35.2753 36.8284 35.2838 36.8439 35.2875 36.8523ZM23.0004 8.80172C18.1371 11.2483 16.9769 16.7858 20.5059 20.7079C22.8061 23.2644 26.7323 24.0284 29.9656 22.5487C33.1936 21.0715 35.0664 17.5763 34.3826 14.3049C33.3425 9.32892 27.9858 6.69977 23.0004 8.80172Z" fill="#3D8AD5"/>
<path d="M3.26485e-06 10.2546C1.2667e-06 8.15252 4.91427e-07 6.07526 1.90642e-07 4C-1.29546e-07 1.79086 1.79086 0 4 0C4.23714 0 4.47426 0 4.71141 0C6.92055 0 8.71142 1.79087 8.71142 4.00001C8.71142 15.1315 8.71142 26.2558 8.71142 37.4428C8.71142 37.934 9.10966 38.3323 9.60092 38.3323C18.3255 38.3323 27.0501 38.3361 35.7746 38.3225C36.2695 38.3218 36.5947 38.4501 36.9232 38.809C37.2022 39.1137 37.4816 39.4181 37.7615 39.7224C40.126 42.293 38.3191 46.4482 34.8263 46.4482C24.55 46.4482 14.2987 46.4482 4.00003 46.4482C1.79089 46.4482 5.4434e-06 44.6573 5.43724e-06 42.4482C5.40742e-06 31.7462 5.16742e-06 21.0268 3.26485e-06 10.2546Z" fill="#3D8AD5"/>
</svg>
