<svg width="207" height="48" viewBox="0 0 207 48" fill="none" xmlns="http://www.w3.org/2000/svg">
<path d="M34.2875 37.3523C34.3123 37.4094 34.2663 37.463 34.2041 37.4631C30.5982 37.47 26.9916 37.4765 23.3138 37.4468C23.2477 37.4463 23.162 37.4023 23.1056 37.3678C23.0445 37.3305 23.0039 37.3102 22.9559 37.257C20.5804 34.6237 18.1861 32.0053 15.8377 29.3504C14.2823 27.5921 12.5741 25.909 11.3151 23.9692C5.97022 15.7343 10.3058 4.54756 19.9517 1.39876C29.6188 -1.75698 39.6474 3.68716 41.6854 13.1972C43.3576 20.9997 38.1982 29.0358 30.1257 31.2017C29.6029 31.342 29.4112 31.9839 29.7744 32.3852C30.2261 32.8844 30.6686 33.3729 31.114 33.859C32.1525 34.9922 33.1963 36.1212 34.2691 37.3215C34.2753 37.3284 34.2838 37.3439 34.2875 37.3523ZM22.0004 9.30172C17.1371 11.7483 15.9769 17.2858 19.5059 21.2079C21.8061 23.7644 25.7323 24.5284 28.9656 23.0487C32.1936 21.5715 34.0664 18.0763 33.3826 14.8049C32.3425 9.82892 26.9858 7.19977 22.0004 9.30172Z" fill="#008CDB"/>
<path d="M3.26485e-06 11.2546C1.2667e-06 9.15252 4.91427e-07 7.07526 1.90642e-07 5C-1.29546e-07 2.79086 1.79086 1 4 1C4.23714 1 4.47426 1 4.71141 1C6.92055 1 8.71142 2.79087 8.71142 5.00001C8.71142 16.1315 8.71142 27.2558 8.71142 38.4428C8.71142 38.934 9.10966 39.3323 9.60092 39.3323C18.3255 39.3323 27.0501 39.3361 35.7746 39.3225C36.2695 39.3218 36.5947 39.4501 36.9232 39.809C37.2022 40.1137 37.4816 40.4181 37.7615 40.7224C40.126 43.293 38.3191 47.4482 34.8263 47.4482C24.55 47.4482 14.2987 47.4482 4.00003 47.4482C1.79089 47.4482 5.4434e-06 45.6573 5.43724e-06 43.4482C5.40742e-06 32.7462 5.16742e-06 22.0268 3.26485e-06 11.2546Z" fill="#008CDB"/>
<path d="M50.8466 32.276H58.0146V36.5H45.3746V14.036H50.8466V32.276ZM59.5366 27.54C59.5366 25.7053 59.878 24.0947 60.5606 22.708C61.2646 21.3213 62.214 20.2547 63.4086 19.508C64.6033 18.7613 65.9366 18.388 67.4086 18.388C68.6673 18.388 69.766 18.644 70.7046 19.156C71.6646 19.668 72.4006 20.34 72.9126 21.172V18.644H78.3846V36.5H72.9126V33.972C72.3793 34.804 71.6326 35.476 70.6726 35.988C69.734 36.5 68.6353 36.756 67.3766 36.756C65.926 36.756 64.6033 36.3827 63.4086 35.636C62.214 34.868 61.2646 33.7907 60.5606 32.404C59.878 30.996 59.5366 29.3747 59.5366 27.54ZM72.9126 27.572C72.9126 26.2067 72.5286 25.1293 71.7606 24.34C71.014 23.5507 70.0966 23.156 69.0086 23.156C67.9206 23.156 66.9926 23.5507 66.2246 24.34C65.478 25.108 65.1046 26.1747 65.1046 27.54C65.1046 28.9053 65.478 29.9933 66.2246 30.804C66.9926 31.5933 67.9206 31.988 69.0086 31.988C70.0966 31.988 71.014 31.5933 71.7606 30.804C72.5286 30.0147 72.9126 28.9373 72.9126 27.572ZM87.8154 21.172C88.3487 20.34 89.0847 19.668 90.0234 19.156C90.962 18.644 92.0607 18.388 93.3194 18.388C94.7914 18.388 96.1247 18.7613 97.3194 19.508C98.514 20.2547 99.4527 21.3213 100.135 22.708C100.839 24.0947 101.191 25.7053 101.191 27.54C101.191 29.3747 100.839 30.996 100.135 32.404C99.4527 33.7907 98.514 34.868 97.3194 35.636C96.1247 36.3827 94.7914 36.756 93.3194 36.756C92.082 36.756 90.9834 36.5 90.0234 35.988C89.0847 35.476 88.3487 34.8147 87.8154 34.004V45.012H82.3434V18.644H87.8154V21.172ZM95.6234 27.54C95.6234 26.1747 95.2394 25.108 94.4714 24.34C93.7247 23.5507 92.7967 23.156 91.6874 23.156C90.5994 23.156 89.6714 23.5507 88.9034 24.34C88.1567 25.1293 87.7834 26.2067 87.7834 27.572C87.7834 28.9373 88.1567 30.0147 88.9034 30.804C89.6714 31.5933 90.5994 31.988 91.6874 31.988C92.7754 31.988 93.7034 31.5933 94.4714 30.804C95.2394 29.9933 95.6234 28.9053 95.6234 27.54ZM112.19 36.756C110.441 36.756 108.862 36.3827 107.454 35.636C106.067 34.8893 104.969 33.8227 104.158 32.436C103.369 31.0493 102.974 29.428 102.974 27.572C102.974 25.7373 103.379 24.1267 104.19 22.74C105.001 21.332 106.11 20.2547 107.518 19.508C108.926 18.7613 110.505 18.388 112.254 18.388C114.003 18.388 115.582 18.7613 116.99 19.508C118.398 20.2547 119.507 21.332 120.318 22.74C121.129 24.1267 121.534 25.7373 121.534 27.572C121.534 29.4067 121.118 31.028 120.286 32.436C119.475 33.8227 118.355 34.8893 116.926 35.636C115.518 36.3827 113.939 36.756 112.19 36.756ZM112.19 32.02C113.235 32.02 114.121 31.636 114.846 30.868C115.593 30.1 115.966 29.0013 115.966 27.572C115.966 26.1427 115.603 25.044 114.878 24.276C114.174 23.508 113.299 23.124 112.254 23.124C111.187 23.124 110.302 23.508 109.598 24.276C108.894 25.0227 108.542 26.1213 108.542 27.572C108.542 29.0013 108.883 30.1 109.566 30.868C110.27 31.636 111.145 32.02 112.19 32.02ZM129.909 21.62C130.549 20.6387 131.349 19.8707 132.309 19.316C133.269 18.74 134.336 18.452 135.509 18.452V24.244H134.005C132.64 24.244 131.616 24.5427 130.933 25.14C130.25 25.716 129.909 26.74 129.909 28.212V36.5H124.437V18.644H129.909V21.62ZM155.245 21.268C155.245 22.5693 154.946 23.764 154.349 24.852C153.751 25.9187 152.834 26.7827 151.597 27.444C150.359 28.1053 148.823 28.436 146.989 28.436H143.597V36.5H138.125V14.036H146.989C148.781 14.036 150.295 14.3453 151.533 14.964C152.77 15.5827 153.698 16.436 154.317 17.524C154.935 18.612 155.245 19.86 155.245 21.268ZM146.573 24.084C147.618 24.084 148.397 23.8387 148.909 23.348C149.421 22.8573 149.677 22.164 149.677 21.268C149.677 20.372 149.421 19.6787 148.909 19.188C148.397 18.6973 147.618 18.452 146.573 18.452H143.597V24.084H146.573ZM157.005 27.54C157.005 25.7053 157.347 24.0947 158.029 22.708C158.733 21.3213 159.683 20.2547 160.877 19.508C162.072 18.7613 163.405 18.388 164.877 18.388C166.136 18.388 167.235 18.644 168.173 19.156C169.133 19.668 169.869 20.34 170.381 21.172V18.644H175.853V36.5H170.381V33.972C169.848 34.804 169.101 35.476 168.141 35.988C167.203 36.5 166.104 36.756 164.845 36.756C163.395 36.756 162.072 36.3827 160.877 35.636C159.683 34.868 158.733 33.7907 158.029 32.404C157.347 30.996 157.005 29.3747 157.005 27.54ZM170.381 27.572C170.381 26.2067 169.997 25.1293 169.229 24.34C168.483 23.5507 167.565 23.156 166.477 23.156C165.389 23.156 164.461 23.5507 163.693 24.34C162.947 25.108 162.573 26.1747 162.573 27.54C162.573 28.9053 162.947 29.9933 163.693 30.804C164.461 31.5933 165.389 31.988 166.477 31.988C167.565 31.988 168.483 31.5933 169.229 30.804C169.997 30.0147 170.381 28.9373 170.381 27.572ZM190.724 36.5L185.284 29.012V36.5H179.812V12.82H185.284V25.908L190.692 18.644H197.444L190.02 27.604L197.508 36.5H190.724Z" fill="#008CDB"/>
</svg>
