<svg width="424" height="339" viewBox="0 0 424 339" fill="none" xmlns="http://www.w3.org/2000/svg">
<path d="M423.292 297.801V320.332C424.25 328.858 416.36 336.421 407.355 334.129L318.23 311.118C316.204 310.608 313.724 310.592 311.516 311.223C213.011 339.004 217.412 338.327 213.917 338.499C212.584 338.499 211.256 338.342 209.974 337.967C107.849 307.983 108.48 306.79 103.209 308.296L16.1151 331.681C7.10466 334.129 -0.728679 326.514 0.12028 318.15H0.0681966L0.0161133 298.384C0.0161133 298.384 1.18799 297.53 5.60986 298.65C6.62549 298.915 7.58382 299.077 8.54216 299.129L58.4901 198.285C60.2453 194.77 63.5005 192.212 67.3338 191.41C151.86 174.171 149.683 173.348 154.485 174.363C226.172 189.572 224.224 190.077 228.308 189.493C298.021 180.462 297.224 179.384 301.922 180.598L367.855 198.337C371.693 199.405 374.839 202.118 376.334 205.796C376.881 207.124 415.865 301.171 413.428 295.296C418.865 296.572 423.292 297.801 423.292 297.801Z" fill="#9EA9C9"/>
<path d="M423.292 297.801V320.332C424.25 328.858 416.36 336.421 407.355 334.129C312.959 309.942 318.365 310.744 315.032 310.744V287.838C315.032 287.838 333.105 258.588 342.537 249.478C352.027 240.369 363.912 244.155 363.912 244.155C363.912 244.155 377.985 246.285 394.454 249.478L413.428 295.296C418.865 296.572 423.292 297.801 423.292 297.801Z" fill="#B0B8CF"/>
<path d="M213.917 338.499C212.584 338.499 211.256 338.343 209.974 337.968C103.834 306.801 109.688 307.494 105.552 307.921V264.182L213.386 311.437L213.917 338.499Z" fill="#B0B8CF"/>
<path d="M407.355 311.275L318.23 288.264C315.995 287.676 313.704 287.728 311.516 288.316L217.115 315.113C214.771 315.806 212.318 315.754 209.975 315.061L110.193 285.493C107.902 284.853 105.501 284.801 103.209 285.441L16.1151 308.827C5.50577 311.65 -3.50464 300.676 1.34952 290.821L58.4902 175.379C60.2454 171.863 63.5006 169.358 67.3339 168.556C176.297 145.889 143.6 152.941 149.74 151.405C153.912 150.686 152.261 151.342 208.323 163.124C223.782 166.243 224.62 167.165 228.308 166.639C247.235 164.082 300.266 156.91 296.855 157.368C301.381 156.806 297.037 156.754 367.855 175.483C371.693 176.493 374.839 179.264 376.334 182.941L422.386 294.014C426.381 303.712 417.589 313.889 407.355 311.275Z" fill="#E3E7F0"/>
<path d="M112.303 278.354C108.85 277.323 105.027 277.209 101.292 278.214C14.4901 301.459 13.886 301.802 12.7193 301.802C9.14118 301.802 6.20889 297.86 8.05264 294.125L65.1776 178.703C65.9068 177.224 67.2506 176.188 68.8547 175.849C155.652 157.808 151.063 158.407 152.922 158.802C225.167 174.214 223.933 174.75 229.287 174.037C301.495 164.313 298.183 164.438 299.969 164.917L365.933 182.688C367.516 183.115 368.834 184.271 369.459 185.782L415.48 296.854C417.157 300.912 413.49 305.141 409.245 304.032L320.068 281.032C316.594 280.136 312.943 280.177 309.49 281.162L215.079 307.953C211.865 308.875 214.553 308.073 112.303 278.354Z" fill="#C9CEE2"/>
<path d="M409.219 304.03L320.042 281.02C316.511 280.108 312.896 280.176 309.49 281.176L215.089 307.973C211.365 308.801 213.589 307.785 112.323 278.353C108.428 277.244 105.053 277.254 101.292 278.197C8.14639 303.145 13.7974 301.796 12.7037 301.796C9.19847 301.796 6.14639 297.869 8.06306 294.124C8.72451 292.785 65.8808 177.312 65.2037 178.681C65.8964 177.244 67.2297 176.176 68.8808 175.858C153.37 158.301 151.381 158.364 152.938 158.812C224.376 174.035 223.662 174.749 229.271 174.046C301.469 164.301 298.464 164.379 299.948 164.937L365.938 182.676C367.537 183.103 368.818 184.275 369.454 185.765C376.782 203.452 416.063 298.312 415.454 296.843C417.12 300.812 413.777 305.046 409.219 304.03Z" fill="#E3E7F0"/>
<path d="M379.209 286.88C379.053 289.916 378.412 292.953 377.396 295.828L320.042 281.02C312.402 279.046 307.724 282.078 301.282 283.52C294.407 278.833 286.568 275.265 280.865 269.244C272.766 260.724 280.386 244.848 285.823 236.854C289.98 230.677 295.469 225.51 294.938 217.411C293.829 200.442 281.928 187.869 287.797 166.161C297.547 164.833 298.625 164.437 299.948 164.937L365.938 182.677C367.537 183.104 368.818 184.276 369.454 185.765L372.813 193.812C370.948 196.848 369.402 199.989 369.136 203.666C368.443 211.979 373.24 219.593 373.771 227.796C374.573 241.328 369.511 254.916 374.25 268.234C376.386 274.307 379.584 280.218 379.209 286.88Z" fill="#8FABFE"/>
<path d="M395.839 249.479L307.412 241.755L217.433 249.188L127.303 220.073L32.7974 244.208L42.2817 224.974L130.875 202.656L218.813 232.938L305.813 226.359L388.803 232.484L395.839 249.479Z" fill="#F8F9FE"/>
<path d="M237.48 194.394L221.756 233.446L149.74 151.405C153.912 150.686 152.261 151.342 208.323 163.124C223.782 166.243 224.62 167.165 228.308 166.639L231.719 166.16C234.282 172.712 236.146 178.519 236.146 178.519L237.48 194.394Z" fill="#111D33" fill-opacity="0.3"/>
<path d="M190.626 301.531L112.323 278.354C108.428 277.245 105.053 277.255 101.292 278.198C8.14639 303.146 13.7974 301.797 12.7037 301.797C9.19847 301.797 6.14639 297.87 8.06306 294.125L32.7974 244.156C44.0839 254.755 49.7401 267.719 61.5266 264.771C69.0683 262.953 75.6412 253.516 80.4485 250.229C92.2297 241.172 110.99 243.516 120.214 255.13C126.662 263.333 129.115 275.906 139.027 279.953C152.089 285.333 167.011 273.563 180.287 278.464C186.521 280.807 189.558 293.38 190.626 301.531Z" fill="#78E75A"/>
<path d="M315.032 280.38C310.558 280.38 309.401 281.406 290.516 286.558C212.605 308.396 214.896 308.683 212.427 307.974L223.834 173.995C228.391 174.755 229.438 173.776 270.099 168.505C292.12 165.558 298.506 164.589 299.256 164.776H299.308L315.032 280.38Z" fill="#C9CEE2"/>
<path d="M315.032 280.38C310.75 280.38 308.542 281.604 301.282 283.521C294.407 278.833 286.568 275.266 280.865 269.245C272.766 260.724 280.386 244.849 285.823 236.854C289.98 230.677 295.469 225.51 294.938 217.411C293.829 200.443 281.928 187.87 287.797 166.161C296.797 164.932 298.5 164.573 299.308 164.776L315.032 280.38Z" fill="#6F93F1"/>
<path d="M307.943 159.344L232.36 234.51L209.6 180.547L208.323 163.125C223.782 166.245 224.62 167.166 228.308 166.64C319.428 154.771 291.818 156.448 307.943 159.344Z" fill="#111D33" fill-opacity="0.3"/>
<path d="M150.917 158.812C150.391 160.182 125.85 224.198 127.407 220.13L115.683 250.651L105.339 277.557C105.183 277.557 105.021 277.557 104.917 277.609C103.87 277.609 102.245 277.974 101.292 278.198C8.14639 303.146 13.7974 301.797 12.7037 301.797C9.19847 301.797 6.14639 297.87 8.06306 294.125C8.72451 292.786 65.8808 177.312 65.2037 178.682C65.8964 177.245 67.2297 176.177 68.8808 175.859C70.2141 175.583 157.365 157.458 150.917 158.812Z" fill="#C9CEE2"/>
<path d="M133.86 203.238L127.407 220.129L127.303 220.072L32.7974 244.207L42.2817 224.973L133.86 203.238Z" fill="#DEDFFB"/>
<path d="M115.683 250.651L105.339 277.557C105.183 277.557 105.021 277.557 104.917 277.609C103.87 277.609 102.245 277.974 101.292 278.198C8.14639 303.146 13.7974 301.797 12.7037 301.797C9.19847 301.797 6.14639 297.87 8.06306 294.125L32.7974 244.156C44.0839 254.755 49.7401 267.719 61.5266 264.771C69.0683 262.953 75.6412 253.516 80.4485 250.229C90.5214 242.448 105.766 243.089 115.683 250.651Z" fill="#5EC363"/>
<path d="M309.756 241.651L309.277 241.599L217.438 249.161L218.823 232.911L307.678 226.203L309.756 241.651Z" fill="#DEDFFB"/>
<path d="M149.766 78.8958V94.8594C149.766 94.8594 157.198 93.2344 157.714 89.5677C158.224 85.8958 157.115 76.4219 157.115 76.4219L149.766 78.8958Z" fill="#DF3260"/>
<path d="M305.193 80.5564L305.214 94.6605C305.214 94.6605 299.475 96.5043 297.938 94.6605C296.396 92.8116 297.063 85.5303 297.626 83.9418C298.193 82.348 299.219 80.6084 299.527 80.5564C299.834 80.5043 305.193 80.5564 305.193 80.5564Z" fill="#DF3260"/>
<mask id="mask0_1146_1013" style="mask-type:luminance" maskUnits="userSpaceOnUse" x="149" y="0" width="157" height="224">
<path d="M149.297 0H305.297V223.13H149.297V0Z" fill="white"/>
</mask>
<g mask="url(#mask0_1146_1013)">
<path d="M285.37 25.9592C269.714 8.51649 249.927 -0.243929 226.537 0.0112785C202.776 0.282112 183.245 10.0894 167.782 28.0113C147.901 51.0738 143.792 86.605 158.849 113.345C178.443 148.147 198.735 182.548 218.907 217.016C220.146 219.131 222.662 220.964 224.995 221.855C229.563 223.589 233.625 221.501 236.594 216.527C250.886 192.522 283.162 136.548 296.927 112.1C303.016 101.287 305.177 89.2665 305.214 79.0165C304.844 57.4852 298.323 40.4019 285.37 25.9592ZM227.318 118.313C200.469 118.225 180.141 93.9488 184.631 67.454C188.115 46.9384 205.98 31.2977 227.454 31.2873C251.672 31.2873 271.125 50.9696 271.079 74.8707C271.052 98.8863 251.401 118.391 227.318 118.313Z" fill="#FA5F7F"/>
</g>
<path d="M289.98 113.092C289.73 119.754 283.053 146.322 282.756 147.645C282.756 147.645 274.995 164.181 264.433 171.374C257.5 176.103 247.355 181.004 239.401 181.431C234.506 181.686 206.381 171.118 198.641 159.509C190.896 147.91 173.61 138.624 168.709 124.874C163.813 111.129 168.709 74.9258 169.745 69.2591C170.157 66.9831 176.745 66.8164 184.631 67.4518C180.146 93.9206 200.438 118.223 227.318 118.311C256.969 118.405 278.386 89.3216 268.797 60.8789C275.48 63.957 281.318 67.7227 282.5 71.5768C287.089 86.6185 291.141 83.5508 289.98 113.092Z" fill="#CC104A"/>
<path d="M305.214 92.6599C305.177 102.915 303.016 114.931 296.927 125.743C283.74 149.17 251.709 204.78 236.589 230.176C233.625 235.15 229.563 237.238 224.995 235.498C222.662 234.608 220.141 232.775 218.907 230.66C198.74 196.191 178.443 161.785 158.849 126.993C143.787 100.248 147.896 64.7172 167.787 41.6547C183.245 23.7381 202.782 13.9256 226.537 13.6599C249.927 13.3995 269.714 22.1651 285.37 39.6078C298.323 54.0401 304.839 71.1235 305.214 92.6599ZM184.016 88.3735C183.99 112.363 203.381 131.879 227.318 131.957C251.401 132.035 271.052 112.53 271.079 88.5141C271.11 64.4776 251.542 44.9308 227.459 44.936C203.506 44.9412 184.042 64.3995 184.016 88.3735Z" fill="#E93565"/>
<path d="M171.818 64.707C164.422 87.9154 171.271 110.738 183.839 130.738C167.37 113.915 159.756 86.0508 171.818 64.707Z" fill="white"/>
<path d="M256.073 31.2852C272.662 35.0299 286.193 49.1706 288.589 66.0612C281.433 50.4622 271.027 39.6393 256.073 31.2852Z" fill="white"/>
<path d="M52.8495 269.937L44.1464 276.093L51.4433 269.239C52.3495 268.39 51.4172 267.39 50.1777 267.52L29.3704 269.645L50.1672 265.15C51.3079 264.906 52.3808 263.624 51.4016 263.025L44.0422 258.515L52.8079 261.895C53.7245 262.249 55.636 261.567 55.7558 260.609L57.4954 246.791L59.3912 260.031C59.537 261.015 61.5422 260.947 62.3652 260.364L71.0683 254.218L63.7714 261.067C62.8339 261.942 63.8495 262.911 65.0318 262.786L85.8391 260.661L65.0422 265.156C63.9068 265.4 62.8339 266.682 63.8079 267.281L71.1724 271.796L62.4068 268.411C61.4902 268.057 59.5735 268.734 59.4537 269.692L57.7141 283.52L55.8183 270.275C55.6777 269.291 53.6724 269.359 52.8495 269.937Z" fill="white"/>
</svg>
