<svg width="575" height="515" viewBox="0 0 575 515" fill="none" xmlns="http://www.w3.org/2000/svg">
<path d="M519.49 240.308V410.284C519.49 449.51 494.75 482.129 461.963 488.868C459.245 489.408 456.402 489.81 453.443 490.08C452.023 490.217 450.604 490.217 449.18 490.217H169.85C122.861 490.217 81.196 464.338 55.2778 424.303C38.3485 398.154 28.1723 366.069 27.5786 331.16V175.875C27.5786 149.996 38.4691 126.947 55.2778 112.251C67.1098 102.009 81.7897 95.9414 97.7682 95.9414H392.604C431.903 95.9414 466.935 116.298 490.251 148.245L504.337 172.103C514.045 192.322 519.49 215.503 519.49 240.308Z" fill="#B9D3EA"/>
<path d="M300.164 100.259V490.218H169.85C156.121 490.218 142.865 488.06 130.198 483.881C129.961 483.748 129.725 483.748 129.488 483.611C129.252 483.479 129.015 483.479 128.779 483.341C108.422 476.332 89.957 464.202 74.5675 448.432C74.331 448.162 74.0945 448.03 73.8579 447.76C73.1483 446.951 72.318 446.141 71.6084 445.332C65.6901 438.862 60.1289 431.715 55.2773 424.166V100.259C55.2773 76.1256 72.4386 56.584 93.6258 56.584H261.816C281.7 56.584 298.035 73.835 299.928 95.81C300.048 97.2913 300.164 98.7725 300.164 100.259Z" fill="#1B2846"/>
<path d="M442.673 61.0319C442.673 61.0319 446.699 41.485 447.172 31.6454C447.761 21.6683 420.892 -5.42224 396.156 1.85693C371.416 9.1361 368.462 52.8058 376.625 58.0642C384.793 63.3225 435.451 68.4433 442.673 61.0319Z" fill="#1B2846"/>
<path d="M382.306 171.695C379.347 199.733 367.984 236.938 367.984 236.938L351.889 243.27L319.932 238.419C319.932 238.419 326.797 173.446 360.173 137.188C376.388 119.53 379.941 127.888 382.664 153.767C383.253 158.756 383.016 164.956 382.306 171.695Z" fill="white"/>
<path d="M335.438 211.597C333.189 211.729 331.176 212.808 329.399 214.427C323.365 220.357 312.238 241.248 320.285 256.346C325.615 266.185 343.722 261.197 347.391 253.378C352.126 242.999 360.647 235.455 357.099 224.536C354.728 216.987 348.81 210.518 335.438 211.597Z" fill="white"/>
<path d="M479.718 483.611C471.077 487.388 461.847 489.547 452.139 489.679H425.391C417.817 457.33 413.438 403.276 411.068 362.971C410.595 354.612 410.122 346.799 409.886 339.79C409.06 321.861 408.703 310.266 408.703 310.266C403.494 286.137 419 273.468 436.045 272.256C455.929 270.77 477.826 284.656 472.144 313.773C471.198 318.761 470.368 324.422 469.894 330.484C465.516 380.767 476.406 460.97 479.718 483.611Z" fill="#1B2846"/>
<path d="M350.707 489.677H403.731C395.683 365.529 424.324 324.552 434.742 302.175C440.896 288.833 439.241 276.703 433.202 266.996C415.451 238.556 359.821 232.488 355.322 287.484C355.322 287.352 344.552 423.63 350.707 489.677Z" fill="#1B2846"/>
<path d="M415.094 122.09L401.481 115.758C401.481 115.758 360.531 125.46 355.675 145.144C347.038 180.863 348.221 314.173 348.221 314.173C348.221 314.173 323.244 339.381 410.716 339.92C492.385 340.46 478.419 312.824 478.419 312.824C478.419 312.824 459.718 251.227 472.501 142.177C474.394 126.137 429.296 118.45 429.296 118.45L415.094 122.09Z" fill="#2E93FF"/>
<path d="M399.826 121.959C417.108 129.778 430.127 118.182 430.127 118.182C428.708 101.333 430.127 77.2047 430.127 77.2047L422.789 73.8349L413.555 69.5235C413.555 69.5235 400.062 59.1443 401.129 76.3953C401.839 88.5308 400.892 106.189 400.299 115.621C400.062 119.398 399.826 121.959 399.826 121.959Z" fill="#FFBE99"/>
<path d="M400.299 115.489C416.635 113.331 429.533 99.7193 429.533 99.7193L422.789 73.7026L413.555 69.3859C413.555 69.3859 400.062 59.0067 401.129 76.263C401.839 88.261 400.893 106.052 400.299 115.489Z" fill="#F27B57"/>
<path d="M376.983 46.0668C376.983 46.0668 358.634 104.702 396.393 108.749C401.602 109.289 406.217 109.421 410.243 109.421C423.262 109.558 434.032 97.9626 434.742 83.1345L436.755 42.8345C436.755 42.8345 378.638 10.6179 376.983 46.0668Z" fill="#FFBE99"/>
<path d="M431.194 70.064C431.194 70.064 439.12 48.0943 449.065 59.4151C456.759 68.1755 444.802 89.6109 432.019 78.2849C419.236 66.9641 431.194 70.064 431.194 70.064Z" fill="#FFBE99"/>
<path d="M434.977 70.1945C434.977 70.1945 441.253 62.3757 445.631 65.2112C450.13 68.0414 444.565 82.1924 434.504 78.1508C434.625 78.1508 440.066 73.7018 434.977 70.1945Z" fill="#F27B57"/>
<path d="M441.727 44.0442L435.924 61.0306C435.924 61.0306 419.946 49.4348 429.417 35.416C435.572 26.116 441.727 44.0442 441.727 44.0442Z" fill="#1B2846"/>
<path d="M420.892 115.758L430.006 118.181C430.006 118.181 430.127 148.244 407.163 146.356C386.685 144.605 399.709 121.958 399.709 121.958L420.892 115.758Z" fill="#FFBE99"/>
<path d="M485.993 237.209C485.993 237.209 490.608 145.146 472.737 136.788C437.7 120.611 447.051 195.555 444.686 232.089C442.315 268.617 483.623 273.738 485.993 237.209Z" fill="white"/>
<path d="M428.113 241.388C428.113 241.388 439.24 240.442 450.367 226.291C458.178 216.451 482.324 231.411 479.718 248.53C477.116 265.786 453.442 270.235 431.193 266.056C408.818 261.877 416.986 243.272 428.113 241.388Z" fill="#FFBE99"/>
<path d="M421.249 254.459L436.161 258.776C436.161 258.776 434.268 248.529 426.573 239.366C417.223 228.31 420.655 221.708 419.946 220.491C419.236 219.412 413.202 217.661 413.081 224.808C412.965 231.949 420.066 235.859 418.406 242.059C416.75 248.396 421.249 254.459 421.249 254.459Z" fill="#FFBE99"/>
<path d="M416.161 251.359C416.161 251.359 416.277 210.519 417.46 198.252C417.46 198.252 416.634 194.612 414.737 194.072C412.845 193.533 395.563 191.512 394.028 192.052C392.488 192.591 390.359 194.342 390.596 197.442C390.832 200.542 390.359 223.459 389.408 238.15C388.583 252.978 416.161 251.359 416.161 251.359Z" fill="#1B2846"/>
<path d="M436.16 258.774C436.16 258.774 420.892 240.576 418.647 238.825C416.513 237.069 394.143 242.465 389.765 241.386C385.502 240.306 395.562 250.686 409.175 258.637C422.904 266.455 434.625 266.863 436.16 258.774Z" fill="#FFBE99"/>
<path d="M418.883 245.969L418.647 238.827C418.647 238.827 411.662 232.358 408.466 221.301C405.98 212.673 399.825 217.26 400.535 221.978C401.717 229.66 411.304 244.218 411.304 244.218L418.883 245.969Z" fill="#FFBE99"/>
<path d="M414.264 245.297C414.264 245.297 401.245 232.358 398.759 222.92C397.812 219.281 394.737 221.032 393.791 223.73C392.367 227.771 393.907 230.199 393.907 230.199C393.907 230.199 390.238 233.839 388.935 235.992C387.636 238.15 389.765 242.599 389.765 242.599L414.264 245.297Z" fill="#FFBE99"/>
<path d="M412.493 196.363L405.387 195.554C403.731 195.422 402.191 196.771 402.075 198.654L401.366 206.742C401.245 208.493 402.312 210.112 403.731 210.52C403.852 210.52 403.968 210.52 403.968 210.52L411.069 211.329C412.729 211.461 414.265 210.112 414.385 208.224L415.095 200.14C415.331 198.252 414.149 196.501 412.493 196.363ZM414.738 200.14L414.028 208.224C413.912 209.842 412.609 211.059 411.189 210.922L404.088 210.112C402.664 209.98 401.602 208.493 401.718 206.88L402.428 198.791C402.548 197.173 403.852 195.961 405.271 196.093L412.372 196.903C413.791 196.903 414.858 198.384 414.738 200.14Z" fill="#B9D3EA"/>
<path d="M366.801 201.893L358.044 199.872C358.044 199.872 360.173 188.546 359.463 181.266C358.754 173.987 363.489 174.395 365.739 177.357C367.984 180.325 364.908 192.725 364.908 192.725L366.801 201.893Z" fill="#FFBE99"/>
<path d="M356.032 203.78L368.105 180.324L386.333 204.32C386.333 204.32 378.165 210.79 365.025 214.562C352.006 218.069 356.032 203.78 356.032 203.78Z" fill="#FFBE99"/>
<path d="M369.171 187.064L368.104 180.324C368.104 180.324 378.048 167.517 379.941 164.015C381.833 160.507 386.805 164.147 386.211 169.003C385.622 173.854 383.373 176.013 383.373 176.013C383.373 176.013 386.805 184.096 388.108 189.624C389.407 195.152 386.332 204.182 386.332 204.182C386.332 204.182 373.076 196.903 369.171 187.064Z" fill="#FFBE99"/>
<path d="M335.081 221.978L350.944 207.689C353.073 205.8 354.849 203.642 356.625 201.351L357.924 199.463L369.408 213.08C369.408 213.08 362.187 245.836 343.843 256.215C329.756 264.166 322.182 256.887 324.311 242.329C325.494 234.378 329.399 227.098 335.081 221.978Z" fill="#FFBE99"/>
<mask id="mask0_1118_805" style="mask-type:luminance" maskUnits="userSpaceOnUse" x="479" y="47" width="96" height="97">
<path d="M479.364 47.7637H574.999V143.916H479.364V47.7637Z" fill="white"/>
</mask>
<g mask="url(#mask0_1118_805)">
<path d="M513.098 142.307C511.322 141.503 509.903 140.017 508.952 138.134L502.208 123.036L485.046 116.698C480.9 115.217 478.771 110.228 480.074 105.51L494.75 54.4231C495.343 52.1325 496.763 50.3815 498.655 49.3023C500.552 48.2231 502.56 48.0909 504.573 48.7627L569.438 72.8908C571.447 73.5626 572.986 75.1814 573.933 77.3398C574.879 79.4981 574.999 81.7887 574.406 84.0794L559.731 135.166C558.427 139.747 554.049 142.307 549.907 140.826L532.746 134.494L519.49 142.175C517.593 143.254 515.58 143.387 513.571 142.715C513.451 142.445 513.214 142.445 513.098 142.307Z" fill="#B9D3EA"/>
</g>
<path fill-rule="evenodd" clip-rule="evenodd" d="M548.252 92.4378L549.671 87.3117C550.265 85.1586 550.028 82.7305 549.077 80.7097C548.131 78.6889 546.475 77.2023 544.583 76.5305L540.084 74.9117C539.138 74.6419 538.665 73.4305 538.901 72.3513C539.138 71.2721 540.2 70.7326 541.151 71.0023L545.645 72.6211C548.488 73.5628 550.854 75.8587 552.157 78.8211C553.576 81.7888 553.813 85.2909 552.983 88.5284L551.563 93.6492C551.327 94.7284 550.265 95.268 549.314 94.9982C548.368 94.5909 547.895 93.5117 548.252 92.4378Z" fill="white"/>
<path fill-rule="evenodd" clip-rule="evenodd" d="M526.708 70.1957L522.214 68.5822C520.317 67.9051 518.188 68.1749 516.411 69.2541C514.635 70.3332 513.336 72.2218 512.742 74.3749L511.323 79.501C511.087 80.5749 510.02 81.1144 509.074 80.8447C508.127 80.5749 507.654 79.3634 507.891 78.2842L509.31 73.1634C510.14 69.9259 512.149 67.2332 514.755 65.7467C517.357 64.1332 520.437 63.8635 523.276 64.8051C525.762 65.6145 527.775 66.4239 527.775 66.4239C528.721 66.6937 529.194 67.9051 528.957 68.9843C528.605 69.9259 527.654 70.4655 526.708 70.1957Z" fill="white"/>
<path fill-rule="evenodd" clip-rule="evenodd" d="M547.422 108.881L546.003 114.007C545.172 117.239 543.159 119.937 540.557 121.418C537.955 123.037 534.876 123.307 532.037 122.36L527.538 120.746C526.592 120.476 526.119 119.26 526.355 118.181C526.592 117.107 527.654 116.567 528.605 116.837L533.099 118.45C534.996 119.127 537.125 118.858 538.901 117.779C540.678 116.699 541.977 114.811 542.57 112.658C543.28 109.828 543.99 107.532 543.99 107.532C544.226 106.458 545.293 105.918 546.239 106.188C547.185 106.728 547.658 107.801 547.422 108.881Z" fill="white"/>
<path fill-rule="evenodd" clip-rule="evenodd" d="M514.161 116.028L509.667 114.409C506.824 113.467 504.458 111.171 503.155 108.209C501.735 105.241 501.499 101.739 502.325 98.5014C503.039 95.6712 503.748 93.3806 503.748 93.3806C503.985 92.3014 505.047 91.7618 505.993 92.0316C506.944 92.3014 507.417 93.5129 507.181 94.592L505.757 99.7181C505.168 101.871 505.404 104.299 506.35 106.32C507.297 108.341 508.953 109.828 510.85 110.499C513.336 111.309 515.344 112.118 515.344 112.118C516.295 112.388 516.768 113.599 516.531 114.679C516.058 115.758 515.107 116.297 514.161 116.028Z" fill="white"/>
<path fill-rule="evenodd" clip-rule="evenodd" d="M523.985 82.4631L523.276 85.0235C523.039 86.1027 521.977 86.6423 521.026 86.3725C520.08 86.1027 519.607 84.8913 519.843 83.8121L520.553 81.2517C520.79 80.1725 521.856 79.6329 522.803 79.9027C523.749 80.1725 524.222 81.384 523.985 82.4631Z" fill="white"/>
<path fill-rule="evenodd" clip-rule="evenodd" d="M539.611 87.9886L538.902 90.549C538.665 91.6281 537.598 92.1677 536.652 91.8979C535.706 91.6281 535.233 90.4114 535.469 89.3375L536.179 86.7718C536.416 85.6979 537.482 85.1584 538.429 85.4282C539.375 85.6979 539.848 86.9094 539.611 87.9886Z" fill="white"/>
<path fill-rule="evenodd" clip-rule="evenodd" d="M527.891 95.1303L529.667 88.6605C529.904 87.5813 529.431 86.5022 528.484 86.1001C527.538 85.6981 526.592 86.3699 526.235 87.4491L524.106 95.1303C523.869 95.8074 524.106 96.6168 524.579 97.1511L526.471 99.1772C527.181 99.9866 528.248 99.8491 528.958 99.1772C529.667 98.3678 529.551 97.1511 528.958 96.347L527.891 95.1303Z" fill="white"/>
<path fill-rule="evenodd" clip-rule="evenodd" d="M518.897 98.7721C518.66 98.3701 518.303 97.9627 517.83 97.8305C516.884 97.5607 515.937 98.1003 515.585 99.1794C515.464 99.719 515.464 100.259 515.701 100.661C519.133 108.072 527.18 110.902 533.692 106.998C534.045 106.728 534.402 106.321 534.523 105.781C534.759 104.702 534.281 103.628 533.335 103.221C532.862 103.089 532.389 103.089 532.037 103.359C527.417 106.321 521.499 104.3 518.897 98.7721Z" fill="white"/>
<path fill-rule="evenodd" clip-rule="evenodd" d="M133.274 157.005V144.737C133.274 139.479 135.171 134.358 138.367 130.718C141.678 126.946 146.062 124.92 150.677 124.92H161.446C163.696 124.92 165.472 122.899 165.472 120.339C165.472 117.779 163.696 115.758 161.446 115.758H150.677C143.928 115.758 137.421 118.858 132.564 124.248C127.713 129.777 125.111 137.056 125.111 144.874V157.137C125.111 159.697 126.883 161.723 129.132 161.723C131.382 161.723 133.274 159.565 133.274 157.005Z" fill="#2E93FF"/>
<path fill-rule="evenodd" clip-rule="evenodd" d="M193.875 124.788H204.645C209.265 124.788 213.759 126.947 216.955 130.586C220.271 134.358 222.048 139.347 222.048 144.605V156.867C222.048 159.433 223.819 161.454 226.069 161.454C228.318 161.454 230.095 159.433 230.095 156.867V144.605C230.095 136.918 227.372 129.507 222.637 123.979C217.785 118.451 211.394 115.488 204.529 115.488C198.611 115.488 193.759 115.488 193.759 115.488C191.51 115.488 189.733 117.509 189.733 120.07C189.854 122.767 191.626 124.788 193.875 124.788Z" fill="#2E93FF"/>
<path fill-rule="evenodd" clip-rule="evenodd" d="M125.226 193.802V206.07C125.226 213.751 127.948 221.168 132.684 226.69C137.535 232.219 143.927 235.186 150.791 235.186H161.566C163.811 235.186 165.587 233.16 165.587 230.6C165.587 228.039 163.811 226.019 161.566 226.019H150.791C146.176 226.019 141.677 223.86 138.482 220.221C135.17 216.449 133.393 211.46 133.393 206.202C133.393 199.462 133.393 193.939 133.393 193.939C133.393 191.374 131.617 189.353 129.367 189.353C127.002 189.083 125.226 191.241 125.226 193.802Z" fill="#2E93FF"/>
<path fill-rule="evenodd" clip-rule="evenodd" d="M193.876 235.05H204.645C211.394 235.05 217.906 231.95 222.758 226.559C227.609 221.031 230.211 213.752 230.211 205.933C230.211 199.193 230.211 193.67 230.211 193.67C230.211 191.105 228.439 189.084 226.19 189.084C223.94 189.084 222.164 191.105 222.164 193.67V205.933C222.164 211.191 220.271 216.312 217.076 219.952C213.759 223.729 209.381 225.75 204.766 225.75C198.848 225.75 193.996 225.75 193.996 225.75C191.747 225.75 189.97 227.77 189.97 230.331C189.854 233.029 191.626 235.05 193.876 235.05Z" fill="#2E93FF"/>
<path fill-rule="evenodd" clip-rule="evenodd" d="M192.458 153.905V159.967C192.458 162.533 194.234 164.554 196.483 164.554C198.728 164.554 200.505 162.533 200.505 159.967V153.905C200.505 151.344 198.728 149.318 196.483 149.318C194.234 149.318 192.458 151.344 192.458 153.905Z" fill="#2E93FF"/>
<path fill-rule="evenodd" clip-rule="evenodd" d="M154.818 153.905V159.967C154.818 162.533 156.595 164.554 158.844 164.554C161.089 164.554 162.866 162.533 162.866 159.967V153.905C162.866 151.344 161.089 149.318 158.844 149.318C156.595 149.318 154.818 151.344 154.818 153.905Z" fill="#2E93FF"/>
<path fill-rule="evenodd" clip-rule="evenodd" d="M176.357 178.704V163.204C176.357 160.644 178.133 158.623 180.383 158.623C182.632 158.623 184.409 160.644 184.409 163.204V181.534C184.409 183.291 183.579 184.904 182.159 185.714L176.83 188.814C174.822 189.893 172.452 189.083 171.389 186.793C170.439 184.502 171.153 181.804 173.161 180.593L176.357 178.704Z" fill="#2E93FF"/>
<path fill-rule="evenodd" clip-rule="evenodd" d="M193.64 193.533C194.35 192.723 195.416 192.184 196.483 192.184C198.728 192.184 200.504 194.21 200.504 196.77C200.504 197.982 200.031 199.193 199.322 200.002C187.369 213.619 167.958 213.619 156.001 200.002C155.291 199.193 154.818 197.982 154.818 196.77C154.818 194.21 156.595 192.184 158.844 192.184C159.906 192.184 160.973 192.723 161.683 193.533C170.56 203.642 184.883 203.642 193.64 193.533Z" fill="#2E93FF"/>
<path fill-rule="evenodd" clip-rule="evenodd" d="M266.316 293.144C266.316 296.652 265.249 299.752 263.593 302.042C261.937 304.333 259.688 305.682 257.081 305.682H98.242C93.1539 305.682 89.1279 300.022 89.1279 293.012C89.1279 289.505 90.1947 286.405 91.8505 284.114C93.5064 281.824 95.7559 280.475 98.3579 280.475H257.202C262.174 280.475 266.316 286.135 266.316 293.144Z" fill="#B9D3EA"/>
<path fill-rule="evenodd" clip-rule="evenodd" d="M114.577 282.904L105.342 303.255H102.146C97.1741 303.255 93.1528 298.674 93.1528 293.014C93.1528 290.183 94.099 287.623 95.7549 285.867C97.4107 283.983 99.6602 282.904 102.03 282.904H114.577Z" fill="#2E93FF"/>
<path fill-rule="evenodd" clip-rule="evenodd" d="M132.327 282.904L123.097 303.255H104.869L114.099 282.904H132.327Z" fill="#2E93FF"/>
<path fill-rule="evenodd" clip-rule="evenodd" d="M150.083 282.904L140.732 303.255H122.504L131.854 282.904H150.083Z" fill="#2E93FF"/>
<path fill-rule="evenodd" clip-rule="evenodd" d="M167.717 282.904L158.487 303.255H140.259L149.493 282.904H167.717Z" fill="#2E93FF"/>
<path fill-rule="evenodd" clip-rule="evenodd" d="M185.472 282.904L176.242 303.255H158.014L167.244 282.904H185.472Z" fill="#2E93FF"/>
<path fill-rule="evenodd" clip-rule="evenodd" d="M197.072 296.383C195.179 300.563 191.274 303.255 187.132 303.255H175.769L184.999 282.904H189.855C195.889 282.904 199.794 290.316 197.072 296.383Z" fill="#2E93FF"/>
<path d="M442.436 118.991H368.22C359.463 118.991 352.242 110.903 352.242 100.794V30.028C352.242 20.0562 359.347 11.8301 368.22 11.8301H442.436C451.193 11.8301 458.414 19.9186 458.414 30.028V100.794C458.414 110.903 451.193 118.991 442.436 118.991ZM368.22 13.7186C360.41 13.7186 354.018 20.9978 354.018 29.8957V100.794C354.018 109.692 360.41 116.971 368.22 116.971H442.436C450.247 116.971 456.638 109.692 456.638 100.794V30.028C456.638 21.1301 450.247 13.8509 442.436 13.8509H368.22V13.7186Z" fill="#2E93FF"/>
<mask id="mask1_1118_805" style="mask-type:luminance" maskUnits="userSpaceOnUse" x="173" y="394" width="93" height="121">
<path d="M173.021 394.455H265.637V514.35H173.021V394.455Z" fill="white"/>
</mask>
<g mask="url(#mask1_1118_805)">
<path d="M173.518 422.821C173.045 417.156 176.83 412.173 181.923 411.633C189.024 410.956 198.49 408.803 203.936 403.275C213.286 393.567 217.428 392.758 224.177 397.614C229.385 401.254 241.101 403.407 251.162 402.735C256.134 402.465 260.512 406.507 260.985 412.035L264.538 454.901C264.538 454.901 268.68 470.94 252.228 490.487C243.587 500.866 237.317 507.066 233.407 510.706C230.332 513.536 226.19 514.345 222.4 513.134C209.854 508.817 181.45 496.285 178.37 472.559C176.12 453.689 174.465 434.412 173.518 422.821Z" fill="#B9D3EA"/>
</g>
<path d="M217.906 426.19C204.53 427.671 194.706 441.018 196.01 455.709C197.308 470.4 209.266 481.048 222.521 479.567C235.777 478.086 245.601 464.877 244.298 450.181C243.236 435.353 231.278 424.571 217.906 426.19ZM222.164 474.039C211.631 475.256 202.16 466.76 201.214 455.169C200.152 443.441 207.962 432.93 218.496 431.713C229.029 430.502 238.5 438.992 239.446 450.72C240.392 462.311 232.698 472.828 222.164 474.039Z" fill="white"/>
<path d="M224.298 450.991C223.11 450.452 221.811 450.05 220.508 449.642C219.799 449.372 219.089 449.103 218.379 448.701C217.076 447.759 217.192 446.003 218.495 445.193C218.852 444.923 219.325 444.791 219.678 444.791C221.338 444.521 222.874 444.654 224.298 445.331C225.007 445.601 225.244 445.463 225.48 444.654C225.717 443.712 225.833 442.77 225.953 441.961C226.069 441.284 225.833 441.014 225.244 440.75C224.298 440.342 223.231 440.21 222.285 440.072C220.981 439.94 220.981 439.94 220.861 438.591C220.624 436.57 220.624 436.57 218.852 436.703C218.616 436.703 218.259 436.703 218.022 436.84C217.192 436.972 217.076 437.11 217.076 438.184C217.076 438.591 217.192 438.993 217.192 439.533C217.312 440.882 217.312 440.75 216.246 441.421C213.644 442.77 212.104 445.061 212.224 448.293C212.34 451.261 213.88 453.012 216.13 454.091C217.549 454.768 218.968 455.17 220.508 455.71C221.102 455.842 221.575 456.112 222.164 456.519C223.583 457.599 223.583 459.619 222.048 460.561C221.218 461.101 220.388 461.238 219.441 461.238C218.022 461.238 216.603 460.968 215.299 460.429C214.469 460.021 214.353 460.159 214.117 461.101C213.996 461.91 213.88 462.719 213.76 463.529C213.644 464.608 213.76 464.878 214.706 465.28C215.893 465.819 217.192 465.952 218.495 465.952C219.441 465.952 219.562 466.089 219.678 467.168C219.678 467.708 219.799 468.248 219.799 468.65C219.914 469.321 220.151 469.591 220.745 469.591C221.454 469.459 222.164 469.459 222.758 469.321C223.347 469.189 223.583 468.919 223.583 468.248C223.467 467.57 223.467 466.899 223.467 466.089C223.347 465.412 223.583 465.01 224.177 464.74C225.596 464.201 226.779 463.121 227.609 461.778C229.622 457.868 228.203 452.742 224.298 450.991Z" fill="white"/>
<path d="M81.3161 362.698C81.3161 363.872 81.2651 365.047 81.1631 366.216C81.061 367.385 80.9126 368.544 80.7085 369.697C80.5091 370.845 80.2586 371.982 79.9571 373.109C79.6603 374.23 79.3124 375.336 78.9182 376.421C78.5239 377.505 78.0833 378.568 77.5963 379.6C77.1093 380.637 76.5805 381.642 76.01 382.621C75.4349 383.594 74.8227 384.536 74.1687 385.445C73.5147 386.355 72.8236 387.223 72.0954 388.053C71.3626 388.884 70.6019 389.672 69.8041 390.418C69.0064 391.159 68.1808 391.862 67.3227 392.513C66.4647 393.164 65.5834 393.767 64.6743 394.322C63.7606 394.872 62.833 395.375 61.8775 395.825C60.9267 396.274 59.9573 396.671 58.9693 397.01C57.9814 397.353 56.9842 397.639 55.9731 397.867C54.962 398.094 53.9416 398.269 52.9165 398.38C51.8915 398.496 50.8618 398.554 49.8321 398.554C48.7978 398.554 47.7728 398.496 46.7431 398.38C45.7181 398.269 44.6977 398.094 43.6865 397.867C42.6754 397.639 41.6782 397.353 40.6903 397.01C39.7023 396.671 38.733 396.274 37.7821 395.825C36.8313 395.375 35.899 394.872 34.9899 394.322C34.0809 393.767 33.195 393.164 32.3369 392.513C31.4835 391.862 30.6532 391.159 29.8555 390.418C29.0623 389.672 28.297 388.884 27.5689 388.053C26.8407 387.223 26.1449 386.355 25.4909 385.445C24.837 384.536 24.2247 383.594 23.6542 382.621C23.0791 381.642 22.5503 380.637 22.0633 379.6C21.5763 378.568 21.1357 377.505 20.7414 376.421C20.3472 375.336 19.9993 374.23 19.7025 373.109C19.401 371.982 19.1505 370.845 18.9511 369.697C18.7517 368.544 18.5986 367.385 18.4966 366.216C18.3992 365.047 18.3481 363.872 18.3481 362.698C18.3481 361.524 18.3992 360.355 18.4966 359.185C18.5986 358.016 18.7517 356.858 18.9511 355.705C19.1505 354.551 19.401 353.414 19.7025 352.292C19.9993 351.166 20.3472 350.065 20.7414 348.976C21.1357 347.891 21.5763 346.833 22.0633 345.796C22.5503 344.759 23.0791 343.754 23.6542 342.781C24.2247 341.802 24.837 340.861 25.4909 339.951C26.1449 339.046 26.8407 338.178 27.5689 337.348C28.297 336.517 29.0623 335.729 29.8555 334.983C30.6532 334.237 31.4835 333.539 32.3369 332.888C33.195 332.232 34.0809 331.629 34.9899 331.079C35.899 330.524 36.8313 330.021 37.7821 329.571C38.733 329.122 39.7023 328.73 40.6903 328.387C41.6782 328.048 42.6754 327.762 43.6865 327.535C44.6977 327.302 45.7181 327.133 46.7431 327.016C47.7728 326.9 48.7978 326.842 49.8321 326.842C50.8618 326.842 51.8915 326.9 52.9165 327.016C53.9416 327.133 54.962 327.302 55.9731 327.535C56.9842 327.762 57.9814 328.048 58.9693 328.387C59.9573 328.73 60.9267 329.122 61.8775 329.571C62.833 330.021 63.7606 330.524 64.6743 331.079C65.5834 331.629 66.4647 332.232 67.3227 332.888C68.1808 333.539 69.0064 334.237 69.8041 334.983C70.6019 335.729 71.3626 336.517 72.0954 337.348C72.8236 338.178 73.5147 339.046 74.1687 339.951C74.8227 340.861 75.4349 341.802 76.01 342.781C76.5805 343.754 77.1093 344.759 77.5963 345.796C78.0833 346.833 78.5239 347.891 78.9182 348.976C79.3124 350.065 79.6603 351.166 79.9571 352.292C80.2586 353.414 80.5091 354.551 80.7085 355.705C80.9126 356.858 81.061 358.016 81.1631 359.185C81.2651 360.355 81.3161 361.524 81.3161 362.698Z" fill="#2E93FF"/>
<path d="M46.2795 381.977H46.1635C44.9762 382.246 43.6775 381.844 42.7313 380.897L32.4299 370.788C30.6581 369.037 30.4216 365.937 31.9568 363.916C33.4967 361.89 36.2193 361.62 37.9957 363.377L44.6237 369.846L58.9464 343.83C60.2451 341.539 62.8517 340.862 64.8647 342.348C66.873 343.83 67.4667 346.797 66.1634 349.088L49.1227 379.818C48.529 380.897 47.4622 381.707 46.2795 381.977Z" fill="white"/>
<path d="M21.3072 329.81C20.1199 330.08 18.8212 329.54 17.9909 328.461L11.247 318.891C10.0596 317.272 10.2962 314.849 11.7201 313.5C13.1394 312.151 15.2683 312.421 16.4511 314.04L23.1996 323.61C24.3824 325.229 24.1458 327.651 22.7265 329C22.3694 329.408 21.8963 329.678 21.3072 329.81Z" fill="#2E93FF"/>
<path d="M10.6538 341.809C9.9442 341.941 9.23456 341.809 8.52491 341.539L3.31624 338.709C1.65577 337.762 0.946124 335.471 1.65577 333.583C2.486 331.699 4.49897 330.89 6.1548 331.699L11.3635 334.53C13.0193 335.471 13.729 337.762 13.0193 339.65C12.6668 340.862 11.7206 341.539 10.6538 341.809Z" fill="#2E93FF"/>
<path d="M42.6111 319.162C40.7187 319.565 38.9423 318.221 38.5851 316.062L37.9961 312.693C37.639 310.534 38.8217 308.514 40.7187 308.111C42.6111 307.704 44.3875 309.053 44.74 311.211L45.3337 314.581C45.6908 316.734 44.5035 318.76 42.6111 319.162Z" fill="#2E93FF"/>
<mask id="mask2_1118_805" style="mask-type:luminance" maskUnits="userSpaceOnUse" x="0" y="384" width="11" height="14">
<path d="M0 384.977H10.3524V397.165H0V384.977Z" fill="white"/>
</mask>
<g mask="url(#mask2_1118_805)">
<path d="M4.49918 395.856C3.31644 396.126 2.01311 395.592 1.18288 394.375C0.000141829 392.624 0.23669 390.196 1.77657 388.985L4.85168 386.287C6.39156 384.943 8.52512 385.213 9.58727 386.964C10.77 388.715 10.5335 391.143 8.99822 392.354L5.91846 395.052C5.56596 395.592 4.97227 395.856 4.49918 395.856Z" fill="#2E93FF"/>
</g>
<path d="M32.1941 421.065C31.721 421.203 31.248 421.203 30.7749 421.065C28.9984 420.526 27.8157 418.372 28.2888 416.352L29.7081 410.014C30.1858 407.993 32.0782 406.644 33.8546 407.184C35.6264 407.723 36.8138 409.877 36.3407 411.903L34.9168 418.235C34.5643 419.721 33.4975 420.795 32.1941 421.065Z" fill="#2E93FF"/>
<path d="M305.489 289.235C289.395 285.595 274.005 297.054 271.167 314.849C268.328 332.508 278.977 349.759 294.84 353.266C310.698 356.768 325.967 345.447 328.926 327.921C332.006 310.263 321.472 292.874 305.489 289.235Z" fill="#2E93FF"/>
<path d="M305.374 320.78C304.07 319.563 302.772 318.622 301.348 317.68C300.522 317.141 299.813 316.463 299.219 315.659C298.036 314.041 298.625 312.152 300.402 311.612C300.875 311.48 301.468 311.48 301.941 311.612C303.834 311.882 305.61 312.692 307.266 314.041C308.096 314.712 308.333 314.58 308.806 313.633C309.279 312.692 309.752 311.612 310.225 310.671C310.582 309.994 310.346 309.454 309.873 309.052C308.806 308.243 307.739 307.571 306.556 307.163C305.017 306.492 305.017 306.492 305.374 304.741C305.731 302.312 305.731 302.312 303.597 301.773C303.245 301.641 303.008 301.641 302.651 301.503C301.584 301.371 301.348 301.503 301.232 302.582C301.111 303.122 301.111 303.661 300.995 304.201C300.759 305.815 300.759 305.682 299.339 305.952C295.903 306.492 293.537 308.512 292.591 312.422C291.881 315.792 293.064 318.49 295.313 320.78C296.733 322.129 298.389 323.203 299.928 324.42C300.522 324.822 301.111 325.361 301.584 326.039C303.008 327.922 302.294 330.212 300.165 330.752C299.098 331.022 297.916 330.89 296.853 330.482C295.193 329.81 293.658 329.001 292.234 327.79C291.408 327.112 291.172 327.112 290.699 328.192C290.225 329.139 289.868 329.943 289.511 330.89C289.038 332.101 289.038 332.371 290.105 333.18C291.408 334.259 292.827 334.931 294.247 335.608C295.429 336.148 295.429 336.148 295.193 337.492C295.077 338.169 294.956 338.708 294.956 339.38C294.84 340.19 295.077 340.729 295.787 340.861C296.617 340.999 297.442 341.269 298.273 341.401C298.982 341.539 299.339 341.269 299.455 340.459C299.576 339.65 299.813 338.841 299.928 337.899C300.049 337.09 300.402 336.688 301.232 336.688C303.008 336.55 304.664 335.878 306.083 334.661C309.516 330.89 309.4 324.42 305.374 320.78Z" fill="white"/>
<path d="M323.954 379.009C323.954 379.522 323.912 380.035 323.824 380.538C323.736 381.04 323.606 381.527 323.434 382.003C323.263 382.479 323.049 382.929 322.799 383.352C322.548 383.78 322.265 384.177 321.945 384.537C321.625 384.902 321.277 385.225 320.906 385.51C320.531 385.796 320.136 386.039 319.719 386.235C319.302 386.431 318.87 386.579 318.43 386.679C317.989 386.78 317.544 386.828 317.089 386.828C316.639 386.828 316.194 386.78 315.753 386.679C315.308 386.579 314.881 386.431 314.464 386.235C314.046 386.039 313.652 385.796 313.277 385.51C312.901 385.225 312.553 384.902 312.238 384.537C311.918 384.177 311.635 383.78 311.384 383.352C311.134 382.929 310.92 382.479 310.749 382.003C310.577 381.527 310.447 381.04 310.359 380.538C310.271 380.035 310.225 379.522 310.225 379.009C310.225 378.496 310.271 377.988 310.359 377.485C310.447 376.983 310.577 376.496 310.749 376.02C310.92 375.544 311.134 375.094 311.384 374.666C311.635 374.242 311.918 373.846 312.238 373.481C312.553 373.121 312.901 372.798 313.277 372.513C313.652 372.227 314.046 371.984 314.464 371.788C314.881 371.592 315.308 371.444 315.753 371.343C316.194 371.243 316.639 371.195 317.089 371.195C317.544 371.195 317.989 371.243 318.43 371.343C318.87 371.444 319.302 371.592 319.719 371.788C320.136 371.984 320.531 372.227 320.906 372.513C321.277 372.798 321.625 373.121 321.945 373.481C322.265 373.846 322.548 374.242 322.799 374.666C323.049 375.094 323.263 375.544 323.434 376.02C323.606 376.496 323.736 376.983 323.824 377.485C323.912 377.988 323.954 378.496 323.954 379.009Z" fill="white"/>
<path d="M318.035 423.631C318.035 424.043 318.003 424.456 317.929 424.863C317.859 425.27 317.753 425.667 317.613 426.053C317.474 426.434 317.303 426.799 317.099 427.148C316.899 427.492 316.667 427.815 316.407 428.106C316.148 428.402 315.869 428.667 315.563 428.894C315.262 429.127 314.942 429.323 314.603 429.481C314.265 429.64 313.917 429.762 313.56 429.841C313.202 429.92 312.841 429.963 312.474 429.963C312.108 429.963 311.746 429.92 311.389 429.841C311.032 429.762 310.684 429.64 310.345 429.481C310.007 429.323 309.687 429.127 309.385 428.894C309.079 428.667 308.801 428.402 308.541 428.106C308.281 427.815 308.054 427.492 307.85 427.148C307.646 426.799 307.474 426.434 307.335 426.053C307.196 425.667 307.089 425.27 307.02 424.863C306.946 424.456 306.913 424.043 306.913 423.631C306.913 423.213 306.946 422.8 307.02 422.393C307.089 421.985 307.196 421.589 307.335 421.202C307.474 420.821 307.646 420.456 307.85 420.107C308.054 419.763 308.281 419.441 308.541 419.15C308.801 418.854 309.079 418.589 309.385 418.362C309.687 418.129 310.007 417.933 310.345 417.774C310.684 417.616 311.032 417.494 311.389 417.415C311.746 417.335 312.108 417.293 312.474 417.293C312.841 417.293 313.202 417.335 313.56 417.415C313.917 417.494 314.265 417.616 314.603 417.774C314.942 417.933 315.262 418.129 315.563 418.362C315.869 418.589 316.148 418.854 316.407 419.15C316.667 419.441 316.899 419.763 317.099 420.107C317.303 420.456 317.474 420.821 317.613 421.202C317.753 421.589 317.859 421.985 317.929 422.393C318.003 422.8 318.035 423.213 318.035 423.631Z" fill="white"/>
<path d="M125.11 384.945C125.11 385.341 125.073 385.733 125.008 386.124C124.938 386.516 124.836 386.897 124.702 387.262C124.567 387.632 124.405 387.981 124.21 388.314C124.015 388.642 123.797 388.949 123.547 389.23C123.301 389.515 123.032 389.764 122.74 389.986C122.452 390.208 122.142 390.393 121.821 390.547C121.497 390.7 121.163 390.811 120.82 390.891C120.476 390.97 120.133 391.007 119.781 391.007C119.433 391.007 119.085 390.97 118.742 390.891C118.399 390.811 118.069 390.7 117.745 390.547C117.42 390.393 117.114 390.208 116.822 389.986C116.534 389.764 116.265 389.515 116.014 389.23C115.769 388.949 115.546 388.642 115.356 388.314C115.161 387.981 114.994 387.632 114.86 387.262C114.73 386.897 114.628 386.516 114.558 386.124C114.489 385.733 114.456 385.341 114.456 384.945C114.456 384.543 114.489 384.151 114.558 383.76C114.628 383.368 114.73 382.987 114.86 382.622C114.994 382.252 115.161 381.903 115.356 381.575C115.546 381.242 115.769 380.935 116.014 380.654C116.265 380.374 116.534 380.12 116.822 379.898C117.114 379.676 117.42 379.491 117.745 379.337C118.069 379.184 118.399 379.073 118.742 378.993C119.085 378.914 119.433 378.877 119.781 378.877C120.133 378.877 120.476 378.914 120.82 378.993C121.163 379.073 121.497 379.184 121.821 379.337C122.142 379.491 122.452 379.676 122.74 379.898C123.032 380.12 123.301 380.374 123.547 380.654C123.797 380.935 124.015 381.242 124.21 381.575C124.405 381.903 124.567 382.252 124.702 382.622C124.836 382.987 124.938 383.368 125.008 383.76C125.073 384.151 125.11 384.543 125.11 384.945Z" fill="#2E93FF"/>
<path d="M319.338 121.017C319.338 121.535 319.25 122.032 319.078 122.509C318.902 122.99 318.656 123.413 318.332 123.778C318.012 124.143 317.641 124.429 317.218 124.625C316.801 124.826 316.36 124.921 315.906 124.921C315.451 124.921 315.015 124.826 314.593 124.625C314.171 124.429 313.8 124.143 313.48 123.778C313.155 123.413 312.91 122.99 312.733 122.509C312.562 122.032 312.474 121.535 312.474 121.017C312.474 120.498 312.562 119.996 312.733 119.52C312.91 119.038 313.155 118.615 313.48 118.25C313.8 117.885 314.171 117.599 314.593 117.404C315.015 117.203 315.451 117.107 315.906 117.107C316.36 117.107 316.801 117.203 317.218 117.404C317.641 117.599 318.012 117.885 318.332 118.25C318.656 118.615 318.902 119.038 319.078 119.52C319.25 119.996 319.338 120.498 319.338 121.017Z" fill="white"/>
<path d="M528.011 389.387C528.011 390.361 527.928 391.329 527.761 392.281C527.594 393.238 527.348 394.164 527.019 395.064C526.694 395.963 526.291 396.82 525.818 397.629C525.34 398.439 524.802 399.185 524.199 399.872C523.591 400.56 522.937 401.179 522.223 401.719C521.513 402.258 520.762 402.718 519.973 403.089C519.185 403.459 518.369 403.745 517.534 403.93C516.694 404.12 515.845 404.215 514.992 404.215C514.139 404.215 513.29 404.12 512.45 403.93C511.611 403.745 510.799 403.459 510.011 403.089C509.217 402.718 508.471 402.258 507.756 401.719C507.047 401.179 506.388 400.56 505.785 399.872C505.182 399.185 504.64 398.439 504.167 397.629C503.689 396.82 503.29 395.963 502.961 395.064C502.636 394.164 502.39 393.238 502.223 392.281C502.056 391.329 501.973 390.361 501.973 389.387C501.973 388.414 502.056 387.451 502.223 386.499C502.39 385.541 502.636 384.616 502.965 383.716C503.29 382.817 503.689 381.96 504.167 381.151C504.64 380.341 505.182 379.595 505.785 378.908C506.388 378.215 507.047 377.601 507.756 377.061C508.471 376.522 509.217 376.062 510.011 375.691C510.799 375.316 511.611 375.035 512.45 374.845C513.29 374.66 514.139 374.564 514.992 374.564C515.845 374.564 516.694 374.66 517.534 374.845C518.369 375.035 519.185 375.316 519.973 375.691C520.762 376.062 521.513 376.522 522.223 377.061C522.937 377.601 523.591 378.215 524.199 378.908C524.802 379.595 525.34 380.341 525.818 381.151C526.291 381.96 526.694 382.817 527.019 383.716C527.348 384.616 527.594 385.541 527.761 386.499C527.928 387.451 528.011 388.414 528.011 389.387Z" fill="#B9D3EA"/>
<path d="M519.49 375.507V403.137C518.066 403.814 516.53 404.084 514.87 404.084C507.653 404.084 501.851 397.477 501.851 389.256C501.851 381.035 507.653 374.428 514.87 374.428C516.53 374.565 518.066 374.967 519.49 375.507Z" fill="white"/>
<path d="M543.28 347.468C543.28 347.886 543.243 348.294 543.174 348.706C543.104 349.114 542.997 349.51 542.858 349.891C542.714 350.277 542.547 350.642 542.343 350.986C542.139 351.335 541.907 351.653 541.652 351.949C541.393 352.24 541.11 352.505 540.808 352.737C540.502 352.965 540.182 353.161 539.848 353.319C539.509 353.478 539.162 353.6 538.804 353.684C538.443 353.764 538.081 353.806 537.719 353.806C537.353 353.806 536.991 353.764 536.634 353.684C536.272 353.6 535.924 353.478 535.59 353.319C535.252 353.161 534.932 352.965 534.625 352.737C534.324 352.505 534.041 352.24 533.781 351.949C533.526 351.653 533.294 351.335 533.09 350.986C532.891 350.642 532.719 350.277 532.575 349.891C532.436 349.51 532.334 349.114 532.26 348.706C532.19 348.294 532.153 347.886 532.153 347.468C532.153 347.05 532.19 346.638 532.26 346.231C532.334 345.823 532.436 345.426 532.575 345.046C532.719 344.659 532.891 344.294 533.09 343.95C533.294 343.601 533.526 343.284 533.781 342.988C534.041 342.697 534.324 342.432 534.625 342.199C534.932 341.972 535.252 341.776 535.59 341.618C535.924 341.454 536.272 341.337 536.634 341.253C536.991 341.173 537.353 341.131 537.719 341.131C538.081 341.131 538.443 341.173 538.804 341.253C539.162 341.337 539.509 341.454 539.843 341.618C540.182 341.776 540.502 341.972 540.808 342.199C541.11 342.432 541.393 342.697 541.652 342.988C541.907 343.284 542.139 343.601 542.343 343.95C542.547 344.294 542.714 344.659 542.858 345.046C542.997 345.426 543.104 345.823 543.174 346.231C543.243 346.638 543.28 347.05 543.28 347.468Z" fill="white"/>
<path d="M302.888 48.0917H169.141C160.264 48.0917 152.926 39.8656 152.926 29.624C152.926 19.5146 160.143 11.1562 169.141 11.1562H302.888C311.765 11.1562 319.103 19.3771 319.103 29.624C318.987 39.8656 311.765 48.0917 302.888 48.0917ZM169.141 13.1771C161.21 13.1771 154.698 20.5885 154.698 29.624C154.698 38.6542 161.21 46.0656 169.141 46.0656H302.888C310.819 46.0656 317.327 38.6542 317.327 29.624C317.327 20.5885 310.819 13.1771 302.888 13.1771H169.141Z" fill="#2E93FF"/>
<path d="M177.425 37.0363L175.412 35.1477L179.318 30.1645L174.229 28.4082L175.176 25.7155L179.911 28.2759L179.318 22.3457H182.277L181.688 28.2759L186.303 25.8477L187.249 28.4082L182.161 30.0269L185.946 35.1477L183.937 36.904L180.857 31.2383L177.425 37.0363Z" fill="#2E93FF"/>
<path d="M205.004 37.0363L202.991 35.1477L206.896 30.1645L201.808 28.4082L202.754 25.7155L207.49 28.2759L206.896 22.3457H209.855L209.266 28.2759L213.881 25.8477L214.827 28.4082L209.739 30.0269L213.524 35.1477L211.511 36.904L208.436 31.2383L205.004 37.0363Z" fill="#2E93FF"/>
<path d="M232.697 37.0363L230.689 35.1477L234.594 30.1645L229.501 28.4082L230.452 25.7155L235.183 28.2759L234.594 22.3457H237.553L236.96 28.2759L241.575 25.8477L242.521 28.4082L237.433 30.0269L241.222 35.1477L239.209 36.904L236.129 31.2383L232.697 37.0363Z" fill="#2E93FF"/>
<path d="M260.397 37.0363L258.384 35.1477L262.29 30.1645L257.202 28.4082L258.148 25.7155L262.883 28.2759L262.29 22.3457H265.249L264.655 28.2759L269.275 25.8477L270.221 28.4082L265.133 30.0269L268.918 35.1477L266.905 36.904L263.83 31.2383L260.397 37.0363Z" fill="#2E93FF"/>
<path d="M288.091 37.0363L286.078 35.1477L289.988 30.1645L284.895 28.4082L285.841 25.7155L290.577 28.2759L289.988 22.3457H292.942L292.353 28.2759L296.968 25.8477L297.914 28.4082L292.826 30.0269L296.616 35.1477L294.603 36.904L291.523 31.2383L288.091 37.0363Z" fill="#2E93FF"/>
</svg>
